<?xml version="1.0" encoding="UTF-8" standalone="no"?>
<svg
   xmlns:dc="http://purl.org/dc/elements/1.1/"
   xmlns:cc="http://creativecommons.org/ns#"
   xmlns:rdf="http://www.w3.org/1999/02/22-rdf-syntax-ns#"
   xmlns:svg="http://www.w3.org/2000/svg"
   xmlns="http://www.w3.org/2000/svg"
   xmlns:sodipodi="http://sodipodi.sourceforge.net/DTD/sodipodi-0.dtd"
   xmlns:inkscape="http://www.inkscape.org/namespaces/inkscape"
   id="svg1545"
   version="1.1"
   viewBox="0 0 24.162401 16.04894"
   height="18mm"
   width="12mm"
   sodipodi:docname="meta.svg"
   inkscape:version="0.92.5 (2060ec1f9f, 2020-04-08)">
  <sodipodi:namedview
     pagecolor="#ffffff"
     bordercolor="#666666"
     borderopacity="1"
     objecttolerance="10"
     gridtolerance="10"
     guidetolerance="10"
     inkscape:pageopacity="0"
     inkscape:pageshadow="2"
     inkscape:window-width="1848"
     inkscape:window-height="1016"
     id="namedview17"
     showgrid="false"
     inkscape:zoom="3.7997224"
     inkscape:cx="45.661231"
     inkscape:cy="30.328707"
     inkscape:window-x="72"
     inkscape:window-y="27"
     inkscape:window-maximized="1"
     inkscape:current-layer="svg1545" />
  <defs
     id="defs1539">
    <linearGradient
       gradientTransform="matrix(0.13397377,0,0,0.13397377,72.327254,136.41681)"
       gradientUnits="userSpaceOnUse"
       y2="66"
       x2="45"
       y1="139"
       x1="45"
       id="Grad_Logo2">
      <stop
         id="stop960"
         offset="0"
         style="stop-color:#0082fb" />
      <stop
         id="stop962"
         offset="1"
         style="stop-color:#0064e0" />
    </linearGradient>
    <linearGradient
       gradientTransform="matrix(0.13397377,0,0,0.13397377,72.327254,136.41681)"
       gradientUnits="userSpaceOnUse"
       y2="127"
       x2="259"
       y1="117"
       x1="61"
       id="Grad_Logo1">
      <stop
         id="stop951"
         offset="0"
         style="stop-color:#0064e1" />
      <stop
         id="stop953"
         offset="0.4"
         style="stop-color:#0064e1" />
      <stop
         id="stop955"
         offset="0.83"
         style="stop-color:#0073ee" />
      <stop
         id="stop957"
         offset="1"
         style="stop-color:#0082fb" />
    </linearGradient>
  </defs>
  <metadata
     id="metadata1542">
    <rdf:RDF>
      <cc:Work
         rdf:about="">
        <dc:format>image/svg+xml</dc:format>
        <dc:type
           rdf:resource="http://purl.org/dc/dcmitype/StillImage" />
        <dc:title></dc:title>
      </cc:Work>
    </rdf:RDF>
  </metadata>
  <g
     transform="matrix(0.91930836,0,0,0.8871926,-65.516197,-128.58667)"
     id="layer1">
    <path
       d="m 74.93709,156.54078 c 0,0.9226 0.202503,1.63093 0.467181,2.05946 0.347026,0.56129 0.864625,0.79908 1.392305,0.79908 0.680606,0 1.303238,-0.16888 2.503124,-1.82839 0.961252,-1.33013 2.093915,-3.19718 2.856026,-4.36765 l 1.290633,-1.983 c 0.896556,-1.37718 1.93427,-2.90814 3.124073,-3.94585 0.971338,-0.84698 2.019136,-1.31752 3.073657,-1.31752 1.770417,0 3.456815,1.02595 4.74745,2.95014 1.412464,2.10736 2.098116,4.76173 2.098116,7.50097 0,1.62841 -0.320978,2.82494 -0.867145,3.77022 -0.527684,0.9142 -1.556151,1.82756 -3.286238,1.82756 v -2.60648 c 1.481366,0 1.851082,-1.36121 1.851082,-2.91905 0,-2.21995 -0.517599,-4.68359 -1.65783,-6.44392 -0.809162,-1.24862 -1.857806,-2.01157 -3.011472,-2.01157 -1.247783,0 -2.251888,0.94109 -3.380351,2.61908 -0.599944,0.89151 -1.21585,1.97796 -1.90738,3.20389 l -0.761274,1.34861 c -1.529267,2.71151 -1.916622,3.3291 -2.681254,4.34833 -1.34021,1.7847 -2.484637,2.46111 -3.991217,2.46111 -1.787225,0 -2.917368,-0.77388 -3.617301,-1.94015 -0.571375,-0.95033 -0.852021,-2.19727 -0.852021,-3.61815 z"
       style="fill:#1a1a1a;stroke-width:0.0840256"
       id="Logo0"
       inkscape:connector-curvature="0" />
    <path
       d="m 74.385042,149.09106 c 1.196523,-1.84436 2.92325,-3.13415 4.903733,-3.13415 1.146949,0 2.287176,0.33946 3.477817,1.31164 1.3024,1.06292 2.6905,2.81318 4.42227,5.69777 l 0.620949,1.0352 c 1.499015,2.49724 2.351872,3.78199 2.850988,4.38782 0.641956,0.77807 1.091493,1.00998 1.675473,1.00998 1.481366,0 1.851082,-1.36121 1.851082,-2.91905 l 2.302301,-0.0722 c 0,1.62841 -0.320978,2.82494 -0.867145,3.77022 -0.527684,0.9142 -1.556151,1.82756 -3.286238,1.82756 -1.075532,0 -2.02838,-0.23359 -3.082063,-1.22762 -0.810006,-0.76295 -1.756973,-2.11828 -2.485476,-3.33665 l -2.167022,-3.61983 c -1.087288,-1.81663 -2.084674,-3.17112 -2.661931,-3.7845 -0.620948,-0.65961 -1.41919,-1.45617 -2.693017,-1.45617 -1.030995,0 -1.906542,0.72346 -2.639244,1.83008 z"
       style="fill:#1a1a1a;stroke-width:0.0840256"
       id="Logo1"
       inkscape:connector-curvature="0" />
    <path
       d="m 79.246763,148.58103 c -1.030995,0 -1.906542,0.72346 -2.639244,1.83008 -1.036037,1.56371 -1.670429,3.8929 -1.670429,6.12967 0,0.9226 0.202503,1.63093 0.467181,2.05946 l -2.224996,1.46541 c -0.571375,-0.95033 -0.852021,-2.19727 -0.852021,-3.61815 0,-2.58378 0.709178,-5.2768 2.057788,-7.35644 1.196523,-1.84436 2.92325,-3.13415 4.903733,-3.13415 z"
       style="fill:#1a1a1a;stroke-width:0.0840256"
       id="Logo2"
       inkscape:connector-curvature="0" />
  </g>
</svg>
