<?xml version="1.0" encoding="UTF-8" standalone="no"?>
<svg
   xmlns:dc="http://purl.org/dc/elements/1.1/"
   xmlns:cc="http://creativecommons.org/ns#"
   xmlns:rdf="http://www.w3.org/1999/02/22-rdf-syntax-ns#"
   xmlns:svg="http://www.w3.org/2000/svg"
   xmlns="http://www.w3.org/2000/svg"
   xmlns:sodipodi="http://sodipodi.sourceforge.net/DTD/sodipodi-0.dtd"
   xmlns:inkscape="http://www.inkscape.org/namespaces/inkscape"
   width="982.613"
   height="749.411"
   viewBox="0 0 982.613 749.411"
   version="1.1"
   id="svg222"
   sodipodi:docname="nav-bg.svg">
  <metadata
     id="metadata228">
    <rdf:RDF>
      <cc:Work
         rdf:about="">
        <dc:format>image/svg+xml</dc:format>
        <dc:type
           rdf:resource="http://purl.org/dc/dcmitype/StillImage" />
      </cc:Work>
    </rdf:RDF>
  </metadata>
  <defs
     id="defs226" />
  <sodipodi:namedview
     pagecolor="#ffffff"
     bordercolor="#666666"
     borderopacity="1"
     objecttolerance="10"
     gridtolerance="10"
     guidetolerance="10"
     inkscape:pageopacity="0"
     inkscape:pageshadow="2"
     inkscape:window-width="640"
     inkscape:window-height="480"
     id="namedview224"
     showgrid="false" />
  <g
     id="Group_1168"
     data-name="Group 1168"
     transform="translate(-982.112 64.137)">
    <path
       id="Path_1086"
       data-name="Path 1086"
       d="M750.536,739.308l818.47-57.233c19.535-151.006-65.076-302.192-187.382-320.408-163.4-24.336-69.025-263.331-338.339-299.054-130.4-17.3-243.156-2.153-337.583,35.542Z"
       transform="matrix(-0.998, -0.07, 0.07, -0.998, 2617.137, 789.862)"
       fill="#ffecee" />
    <path
       id="Path_1304"
       data-name="Path 1304"
       d="M679.012,734.286,1570.3,671.96c14.295-147.283-69.262-292.507-188.678-310.293-163.4-24.336-69.025-263.331-338.339-299.054-163.2-21.648-299.609,7.534-406.471,68.224Z"
       transform="matrix(-0.998, -0.07, 0.07, -0.998, 2547.137, 778.862)"
       fill="none"
       stroke="#273437"
       stroke-width="1.5" />
  </g>
  <ellipse
     style="fill:#ff9955;fill-opacity:1;stroke:#3f87ff;stroke-width:0;stroke-miterlimit:4;stroke-dasharray:none;stroke-opacity:0.86387425;paint-order:stroke fill markers"
     id="path2664"
     cx="790.69214"
     cy="149.2471"
     rx="250.86217"
     ry="266.7395"
     r="0" />
</svg>
